# xmcd
#
# Track frame offsets:
# 150
# 17755
# 35091
# 49737
# 65523
# 80246
# 90826
# 109178
# 126014
# 140359
# 154168
# 167914
# 185419
# 204551
# 218395
# 230696
# 248314
#
# Disc length: 3530 seconds
#
#
# Revision: 4
# Processed by: cddbd v1.5.1PL0 Copyright (c) Steve Scherf et al.
# Submitted via: FreeRIP 2.942 
#
DISCID=e20dc811
DTITLE=Various Artist - PROMO ONLY COUNTRY RADIO JULY 2005
DYEAR=2005
DGENRE=Country
TTITLE0=Tim McGraw - Do You Want Fries With That
TTITLE1=Faith Hill - Mississippi Girl
TTITLE2=Brooks and Dunn - Play Something Country
TTITLE3=Jo Dee Messina - Delicious Surprise (I Believe It)
TTITLE4=Lonestar - You're Like Comin' Home
TTITLE5=Clint Black - Rainbow In The Rain
TTITLE6=Gary Allan - Best I Ever Had
TTITLE7=Andy Griggs - This I Gotta See
TTITLE8=Tracy Lawrence - Used To The Pain
TTITLE9=Phil Vassar - Good Ole Days
TTITLE10=Erika Jo - I Break Things
TTITLE11=Kerry Harvick - That's What Your Love Does
TTITLE12=Sawyer Brown - They Don't Understand
TTITLE13=Shelly Fairchild - Kiss Me
TTITLE14=Matt Jenkins - King Of The Castle
TTITLE15=Lila Mccann - I Can Do This
TTITLE16=Dwight Yoakam - Intentional Heartache
EXTD=
EXTT0=
EXTT1=
EXTT2=
EXTT3=
EXTT4=
EXTT5=
EXTT6=
EXTT7=
EXTT8=
EXTT9=
EXTT10=
EXTT11=
EXTT12=
EXTT13=
EXTT14=
EXTT15=
EXTT16=
PLAYORDER=
